<mxfile host="app.diagrams.net" agent="Mozilla/5.0 (Windows NT 10.0; Win64; x64) AppleWebKit/537.36 (KHTML, like Gecko) Chrome/133.0.0.0 Safari/537.36" version="26.0.13">
  <diagram name="PaginÄƒ-1" id="FsEjg7Ed_IUu1DzRXPSv">
    <mxGraphModel dx="1750" dy="870" grid="1" gridSize="10" guides="1" tooltips="1" connect="1" arrows="1" fold="1" page="1" pageScale="1" pageWidth="827" pageHeight="1169" math="0" shadow="0">
      <root>
        <mxCell id="0" />
        <mxCell id="1" parent="0" />
        <mxCell id="DJvMOze5gsXIM0qXsrdn-1" value="q0" style="ellipse;whiteSpace=wrap;html=1;aspect=fixed;" vertex="1" parent="1">
          <mxGeometry x="270" y="196.8" width="80" height="80" as="geometry" />
        </mxCell>
        <mxCell id="DJvMOze5gsXIM0qXsrdn-2" value="q1" style="ellipse;whiteSpace=wrap;html=1;aspect=fixed;" vertex="1" parent="1">
          <mxGeometry x="470" y="76.8" width="80" height="80" as="geometry" />
        </mxCell>
        <mxCell id="DJvMOze5gsXIM0qXsrdn-3" value="q2" style="ellipse;whiteSpace=wrap;html=1;aspect=fixed;" vertex="1" parent="1">
          <mxGeometry x="470" y="226.8" width="80" height="80" as="geometry" />
        </mxCell>
        <mxCell id="DJvMOze5gsXIM0qXsrdn-4" value="q3" style="ellipse;whiteSpace=wrap;html=1;aspect=fixed;" vertex="1" parent="1">
          <mxGeometry x="390" y="356.8" width="80" height="80" as="geometry" />
        </mxCell>
        <mxCell id="DJvMOze5gsXIM0qXsrdn-5" value="" style="endArrow=classic;html=1;rounded=0;exitX=1;exitY=0;exitDx=0;exitDy=0;entryX=0;entryY=0.5;entryDx=0;entryDy=0;" edge="1" parent="1" source="DJvMOze5gsXIM0qXsrdn-1" target="DJvMOze5gsXIM0qXsrdn-2">
          <mxGeometry width="50" height="50" relative="1" as="geometry">
            <mxPoint x="600" y="286.8" as="sourcePoint" />
            <mxPoint x="650" y="236.8" as="targetPoint" />
          </mxGeometry>
        </mxCell>
        <mxCell id="DJvMOze5gsXIM0qXsrdn-7" value="&#39;c&#39;" style="text;html=1;align=center;verticalAlign=middle;whiteSpace=wrap;rounded=0;fontSize=20;rotation=-30;" vertex="1" parent="1">
          <mxGeometry x="360" y="146.8" width="60" height="30" as="geometry" />
        </mxCell>
        <mxCell id="DJvMOze5gsXIM0qXsrdn-9" value="" style="curved=1;endArrow=classic;html=1;rounded=0;exitX=0;exitY=0;exitDx=0;exitDy=0;entryX=0.425;entryY=-0.04;entryDx=0;entryDy=0;entryPerimeter=0;" edge="1" parent="1">
          <mxGeometry width="50" height="50" relative="1" as="geometry">
            <mxPoint x="477.71572875253787" y="91.71572875253786" as="sourcePoint" />
            <mxPoint x="300" y="196.79999999999995" as="targetPoint" />
            <Array as="points">
              <mxPoint x="306" y="59.999999999999986" />
            </Array>
          </mxGeometry>
        </mxCell>
        <mxCell id="DJvMOze5gsXIM0qXsrdn-10" value="Alt caracter" style="text;html=1;align=center;verticalAlign=middle;whiteSpace=wrap;rounded=0;fontSize=13;rotation=-30;" vertex="1" parent="1">
          <mxGeometry x="280" y="76.8" width="90" height="30" as="geometry" />
        </mxCell>
        <mxCell id="DJvMOze5gsXIM0qXsrdn-13" value="" style="endArrow=classic;html=1;rounded=0;entryX=0;entryY=0.5;entryDx=0;entryDy=0;" edge="1" parent="1" target="DJvMOze5gsXIM0qXsrdn-1">
          <mxGeometry width="50" height="50" relative="1" as="geometry">
            <mxPoint x="210" y="236.8" as="sourcePoint" />
            <mxPoint x="260" y="236.8" as="targetPoint" />
          </mxGeometry>
        </mxCell>
        <mxCell id="DJvMOze5gsXIM0qXsrdn-14" value="" style="curved=1;endArrow=classic;html=1;rounded=0;exitX=0;exitY=1;exitDx=0;exitDy=0;entryX=0.5;entryY=1;entryDx=0;entryDy=0;" edge="1" parent="1" source="DJvMOze5gsXIM0qXsrdn-1" target="DJvMOze5gsXIM0qXsrdn-1">
          <mxGeometry width="50" height="50" relative="1" as="geometry">
            <mxPoint x="327.71572875253787" y="298.5157287525379" as="sourcePoint" />
            <mxPoint x="300" y="356.8" as="targetPoint" />
            <Array as="points">
              <mxPoint x="230" y="286.8" />
              <mxPoint x="230" y="336.8" />
              <mxPoint x="260" y="346.8" />
              <mxPoint x="300" y="326.8" />
            </Array>
          </mxGeometry>
        </mxCell>
        <mxCell id="DJvMOze5gsXIM0qXsrdn-15" value="Alt caracter" style="text;html=1;align=center;verticalAlign=middle;whiteSpace=wrap;rounded=0;fontSize=13;rotation=-30;" vertex="1" parent="1">
          <mxGeometry x="240" y="296.8" width="60" height="30" as="geometry" />
        </mxCell>
        <mxCell id="DJvMOze5gsXIM0qXsrdn-16" value="" style="endArrow=classic;html=1;rounded=0;exitX=0.251;exitY=0.939;exitDx=0;exitDy=0;exitPerimeter=0;entryX=0.248;entryY=0.066;entryDx=0;entryDy=0;entryPerimeter=0;" edge="1" parent="1" source="DJvMOze5gsXIM0qXsrdn-2" target="DJvMOze5gsXIM0qXsrdn-3">
          <mxGeometry width="50" height="50" relative="1" as="geometry">
            <mxPoint x="530" y="196.8" as="sourcePoint" />
            <mxPoint x="492" y="216.8" as="targetPoint" />
          </mxGeometry>
        </mxCell>
        <mxCell id="DJvMOze5gsXIM0qXsrdn-17" value="&#39;a&#39;" style="text;html=1;align=center;verticalAlign=middle;whiteSpace=wrap;rounded=0;fontSize=20;rotation=0;" vertex="1" parent="1">
          <mxGeometry x="450" y="176.8" width="60" height="30" as="geometry" />
        </mxCell>
        <mxCell id="DJvMOze5gsXIM0qXsrdn-20" value="" style="curved=1;endArrow=classic;html=1;rounded=0;entryX=1;entryY=0;entryDx=0;entryDy=0;exitX=0.992;exitY=0.613;exitDx=0;exitDy=0;exitPerimeter=0;" edge="1" parent="1" source="DJvMOze5gsXIM0qXsrdn-2" target="DJvMOze5gsXIM0qXsrdn-2">
          <mxGeometry width="50" height="50" relative="1" as="geometry">
            <mxPoint x="600" y="116.8" as="sourcePoint" />
            <mxPoint x="650" y="66.8" as="targetPoint" />
            <Array as="points">
              <mxPoint x="650" y="116.8" />
              <mxPoint x="640" y="66.8" />
              <mxPoint x="600" y="66.8" />
            </Array>
          </mxGeometry>
        </mxCell>
        <mxCell id="DJvMOze5gsXIM0qXsrdn-21" value="&#39;c&#39;" style="text;html=1;align=center;verticalAlign=middle;whiteSpace=wrap;rounded=0;fontSize=20;rotation=0;" vertex="1" parent="1">
          <mxGeometry x="560" y="86.8" width="60" height="30" as="geometry" />
        </mxCell>
        <mxCell id="DJvMOze5gsXIM0qXsrdn-22" value="" style="endArrow=classic;html=1;rounded=0;exitX=0.25;exitY=0.954;exitDx=0;exitDy=0;exitPerimeter=0;entryX=1;entryY=0;entryDx=0;entryDy=0;" edge="1" parent="1" source="DJvMOze5gsXIM0qXsrdn-3" target="DJvMOze5gsXIM0qXsrdn-4">
          <mxGeometry width="50" height="50" relative="1" as="geometry">
            <mxPoint x="580" y="366.8" as="sourcePoint" />
            <mxPoint x="630" y="316.8" as="targetPoint" />
          </mxGeometry>
        </mxCell>
        <mxCell id="DJvMOze5gsXIM0qXsrdn-23" value="&#39;t&#39;" style="text;html=1;align=center;verticalAlign=middle;whiteSpace=wrap;rounded=0;fontSize=20;rotation=0;" vertex="1" parent="1">
          <mxGeometry x="460" y="326.8" width="60" height="30" as="geometry" />
        </mxCell>
        <mxCell id="DJvMOze5gsXIM0qXsrdn-24" value="" style="endArrow=classic;html=1;rounded=0;exitX=0.747;exitY=0.065;exitDx=0;exitDy=0;exitPerimeter=0;entryX=0.748;entryY=0.932;entryDx=0;entryDy=0;entryPerimeter=0;" edge="1" parent="1" source="DJvMOze5gsXIM0qXsrdn-3" target="DJvMOze5gsXIM0qXsrdn-2">
          <mxGeometry width="50" height="50" relative="1" as="geometry">
            <mxPoint x="530" y="206.8" as="sourcePoint" />
            <mxPoint x="600" y="176.8" as="targetPoint" />
          </mxGeometry>
        </mxCell>
        <mxCell id="DJvMOze5gsXIM0qXsrdn-25" value="&#39;c&#39;" style="text;html=1;align=center;verticalAlign=middle;whiteSpace=wrap;rounded=0;fontSize=20;rotation=0;" vertex="1" parent="1">
          <mxGeometry x="510" y="176.8" width="60" height="30" as="geometry" />
        </mxCell>
        <mxCell id="DJvMOze5gsXIM0qXsrdn-26" value="" style="endArrow=classic;html=1;rounded=0;exitX=0.01;exitY=0.347;exitDx=0;exitDy=0;exitPerimeter=0;entryX=1;entryY=0.5;entryDx=0;entryDy=0;" edge="1" parent="1" source="DJvMOze5gsXIM0qXsrdn-3" target="DJvMOze5gsXIM0qXsrdn-1">
          <mxGeometry width="50" height="50" relative="1" as="geometry">
            <mxPoint x="440" y="266.8" as="sourcePoint" />
            <mxPoint x="490" y="216.8" as="targetPoint" />
          </mxGeometry>
        </mxCell>
        <mxCell id="DJvMOze5gsXIM0qXsrdn-27" value="Alt caracter" style="text;html=1;align=center;verticalAlign=middle;whiteSpace=wrap;rounded=0;fontSize=13;rotation=0;" vertex="1" parent="1">
          <mxGeometry x="370" y="216.8" width="90" height="30" as="geometry" />
        </mxCell>
        <mxCell id="DJvMOze5gsXIM0qXsrdn-29" value="" style="curved=1;endArrow=classic;html=1;rounded=0;exitX=0.101;exitY=0.809;exitDx=0;exitDy=0;entryX=0.409;entryY=0.986;entryDx=0;entryDy=0;exitPerimeter=0;entryPerimeter=0;" edge="1" parent="1" source="DJvMOze5gsXIM0qXsrdn-4" target="DJvMOze5gsXIM0qXsrdn-4">
          <mxGeometry width="50" height="50" relative="1" as="geometry">
            <mxPoint x="392" y="426.8" as="sourcePoint" />
            <mxPoint x="420" y="438.8" as="targetPoint" />
            <Array as="points">
              <mxPoint x="340" y="448.8" />
              <mxPoint x="340" y="498.8" />
              <mxPoint x="370" y="508.8" />
              <mxPoint x="410" y="488.8" />
            </Array>
          </mxGeometry>
        </mxCell>
        <mxCell id="DJvMOze5gsXIM0qXsrdn-30" value="Orice caracter" style="text;html=1;align=center;verticalAlign=middle;whiteSpace=wrap;rounded=0;fontSize=13;rotation=-30;" vertex="1" parent="1">
          <mxGeometry x="350" y="446.8" width="60" height="30" as="geometry" />
        </mxCell>
      </root>
    </mxGraphModel>
  </diagram>
</mxfile>
